HIERARCHY
ROOT Hips
{
  OFFSET -187.679 86.5976 -156.378
  CHANNELS 6 Xposition Yposition Zposition Zrotation Xrotation Yrotation
  JOINT LeftUpLeg
  {
    OFFSET 8.64259 1.95398 -2.38835
    CHANNELS 3 Zrotation Xrotation Yrotation
    JOINT LeftLeg
    {
      OFFSET 43.7702 0 0
      CHANNELS 3 Zrotation Xrotation Yrotation
      JOINT LeftFoot
      {
        OFFSET 40.6238 0 0
        CHANNELS 3 Zrotation Xrotation Yrotation
        JOINT LeftToeBase
        {
          OFFSET 12.7242 0 0
          CHANNELS 3 Zrotation Xrotation Yrotation
          End Site
          {
            OFFSET 0 0 0
          }
        }
      }
    }
  }
  JOINT RightUpLeg
  {
    OFFSET -8.2249 1.95398 -2.59336
    CHANNELS 3 Zrotation Xrotation Yrotation
    JOINT RightLeg
    {
      OFFSET 43.5653 0 0
      CHANNELS 3 Zrotation Xrotation Yrotation
      JOINT RightFoot
      {
        OFFSET 40.6238 0 0
        CHANNELS 3 Zrotation Xrotation Yrotation
        JOINT RightToeBase
        {
          OFFSET 12.7242 0 0
          CHANNELS 3 Zrotation Xrotation Yrotation
          End Site
          {
            OFFSET 0 0 0
          }
        }
      }
    }
  }
  JOINT Spine
  {
    OFFSET 0.165834 0.87714 6.61349
    CHANNELS 3 Zrotation Xrotation Yrotation
    JOINT Spine1
    {
      OFFSET 7.38963 1.71661e-005 0
      CHANNELS 3 Zrotation Xrotation Yrotation
      JOINT Spine2
      {
        OFFSET 11.9445 1.14441e-005 0
        CHANNELS 3 Zrotation Xrotation Yrotation
        JOINT Spine3
        {
          OFFSET 14.7254 4.19617e-005 0
          CHANNELS 3 Zrotation Xrotation Yrotation
          JOINT Spine4
          {
            OFFSET 10.9679 0 0
            CHANNELS 3 Zrotation Xrotation Yrotation
            JOINT RightShoulder
            {
              OFFSET 2.46616 -1.6653 3.69651
              CHANNELS 3 Zrotation Xrotation Yrotation
              JOINT RightArm
              {
                OFFSET 13.0012 0 0
                CHANNELS 3 Zrotation Xrotation Yrotation
                JOINT RightForeArm
                {
                  OFFSET 28.7848 1.52588e-005 0
                  CHANNELS 3 Zrotation Xrotation Yrotation
                  JOINT RightHand
                  {
                    OFFSET 26.5688 1.52588e-005 0
                    CHANNELS 3 Zrotation Xrotation Yrotation
                    End Site
                    {
                      OFFSET 0 0 0
                    }
                  }
                }
              }
            }
            JOINT LeftShoulder
            {
              OFFSET 2.38034 -1.29275 -3.7523
              CHANNELS 3 Zrotation Xrotation Yrotation
              JOINT LeftArm
              {
                OFFSET 16.3182 6.10352e-005 0
                CHANNELS 3 Zrotation Xrotation Yrotation
                JOINT LeftForeArm
                {
                  OFFSET 27.0901 0 0
                  CHANNELS 3 Zrotation Xrotation Yrotation
                  JOINT LeftHand
                  {
                    OFFSET 24.5451 1.52588e-005 0
                    CHANNELS 3 Zrotation Xrotation Yrotation
                    End Site
                    {
                      OFFSET 0 0 0
                    }
                  }
                }
              }
            }
            JOINT Neck
            {
              OFFSET 5.0226 -0.0266342 0
              CHANNELS 3 Zrotation Xrotation Yrotation
              JOINT Head
              {
                OFFSET 6.69363 2.86102e-005 0
                CHANNELS 3 Zrotation Xrotation Yrotation
                End Site
                {
                  OFFSET 0 0 0
                }
              }
            }
          }
        }
      }
    }
  }
}
MOTION
Frames:	9
Frame Time:	0.0416667
-161.568 100.068 111.653 105.708 -68.4402 102.295 -174.926 -7.26859 90.0616 -7.87737 7.86942 8.9246 67.4877 3.6258 -3.05082 16.0255 -7.74882 5.60425 171.199 -2.49975 85.0079 -15.4119 0.892636 2.07204 65.3837 -2.31624 0.439953 26.3366 -1.1613 2.53146 0.167199 7.60481 -89.9416 11.6642 0.360003 0.0788627 -0.00671533 0.363122 0.0629318 -22.5422 0.31966 0.183417 -2.52954 0.319654 0.183408 90.9533 -44.7141 -100.374 32.7728 -24.223 -14.9044 -15.5523 -17.3293 -15.4987 -11.0293 -0.148313 -3.57056 -87.4645 -45.2133 81.8723 -31.4384 23.807 -7.96708 7.90575 -8.84489 -14.0139 -2.34019 -0.0861287 -1.97458 6.17252 -6.71132 -1.6327 4.29244 -6.1791 1.16022 
-161.581 100.083 111.624 105.53 -68.3471 102.094 -174.997 -7.08081 90.0385 -8.01474 6.75981 8.89385 67.358 3.14423 -4.79388 16.848 -7.458 5.81982 171.212 -2.45125 84.9934 -15.4323 1.42821 2.08587 65.5233 -2.38844 1.00898 26.6916 -0.83714 1.68768 0.11443 7.58906 -89.9197 11.6956 0.265266 0.132377 0.0246668 0.270836 0.120569 -22.5106 0.213219 0.205977 -2.49794 0.213216 0.205976 90.0754 -45.7965 -101.526 31.2494 -24.7992 -15.132 -14.9027 -15.9093 -14.6999 -11.1177 -0.096826 -4.14378 -88.1264 -45.3365 80.8501 -31.2291 23.7195 -6.54051 7.40546 -10.604 -15.2548 -3.02255 -0.097668 -1.8993 5.94526 -6.47129 -1.97871 4.57002 -5.86682 1.36592 
-161.587 100.047 111.599 105.73 -68.3259 102.275 -175.035 -7.34445 90.0099 -7.75423 7.12622 9.02487 68.1681 3.665 -4.34904 15.5319 -8.2722 6.18441 171.182 -2.34591 84.9463 -15.7769 1.53177 2.11225 65.8281 -2.47557 1.77038 25.5634 -0.925888 1.35309 0.122572 7.58988 -89.9226 11.6939 0.280146 0.125055 0.0230104 0.285385 0.11259 -22.5123 0.229612 0.203467 -2.49962 0.229618 0.20346 90.2025 -45.7454 -101.335 31.3058 -24.7798 -15.1926 -14.8651 -16.088 -14.6098 -11.1388 -0.0927658 -4.19186 -87.9286 -45.2291 81.1415 -31.4936 24.4798 -6.6028 6.85461 -12.1866 -15.429 -3.99659 -0.104283 -2.99724 6.14031 -6.34184 -1.92214 4.35544 -5.74519 1.43377 
-161.655 100.059 111.632 106.017 -68.1642 102.751 -174.994 -7.3242 90.289 -7.99601 7.11517 9.24331 68.1755 3.52008 -4.73794 15.6998 -8.05942 5.91719 171.375 -2.65411 85.285 -15.6071 1.62862 2.05333 65.6833 -2.46263 1.50014 25.7008 -0.886175 1.30189 0.115774 7.59525 -89.938 11.6833 0.25941 0.0964185 0.012369 0.263408 0.084898 -22.5229 0.21844 0.169927 -2.51027 0.218441 0.169919 90.2587 -45.7882 -101.234 31.3103 -24.9199 -15.3133 -14.7577 -16.3383 -14.4221 -11.2255 -0.109822 -4.01001 -87.7275 -45.2599 81.4647 -31.1548 24.9512 -6.63575 6.72724 -12.5355 -15.6433 -3.87569 -0.100178 -3.35109 5.97129 -6.34944 -1.94764 4.37336 -5.76195 1.2678 
-161.732 100.062 111.651 106.545 -68.0946 103.169 -174.891 -7.47467 90.3044 -8.06066 7.39431 9.1141 67.94 3.53849 -4.33752 15.3557 -8.13328 5.72467 171.357 -2.58684 85.2875 -16.1976 1.46471 2.01759 66.0274 -2.55037 1.23783 25.3797 -0.936926 1.29152 0.120217 7.60285 -89.9471 11.6681 0.263963 0.0779328 -0.00284049 0.267142 0.0662385 -22.5381 0.228341 0.153671 -2.52549 0.228333 0.153663 90.3159 -45.5072 -101.212 31.617 -24.5719 -15.1823 -14.8849 -16.8196 -14.4834 -11.3743 -0.121409 -3.8995 -88.1059 -45.899 80.9963 -30.6786 24.3922 -6.24017 6.85155 -12.3724 -15.9826 -3.35715 -0.0952595 -3.19744 5.68159 -6.17361 -1.34832 4.38957 -5.73544 0.841477 
-161.828 100.076 111.718 106.648 -67.8556 103.04 -175.063 -7.6533 90.1108 -7.91472 7.48027 9.33156 67.7341 3.42198 -4.56636 16.0079 -7.98856 6.08135 171.26 -2.60012 85.1399 -16.4169 1.68116 2.0332 66.1997 -2.58519 1.27859 25.1954 -0.956489 1.25573 0.122206 7.5856 -89.9301 11.7026 0.275989 0.110339 0.0316476 0.280595 0.098075 -22.5036 0.230067 0.188179 -2.491 0.23007 0.188177 90.3526 -45.547 -101.143 31.7576 -24.8056 -14.8576 -14.8583 -16.3895 -14.6153 -11.0874 -0.117351 -3.91493 -87.5854 -45.2913 81.6959 -31.0943 24.8454 -6.55046 6.73248 -12.5045 -15.4823 -3.12601 -0.0931778 -3.33905 5.15161 -6.19877 -1.34029 4.51478 -5.75077 1.15038 
-162.012 100.064 111.864 107.21 -67.6325 103.537 -174.966 -7.91598 90.2592 -7.99572 7.80331 9.40825 67.8713 3.53126 -4.33224 15.9238 -7.96714 5.95149 171.342 -2.91179 85.2745 -16.5287 1.90482 1.99149 66.3346 -2.56084 1.26751 25.2226 -0.959812 1.28029 0.155464 7.61969 -89.9429 11.6344 0.336047 0.0788532 -0.0365274 0.339191 0.063974 -22.5719 0.296819 0.176206 -2.55931 0.296805 0.176197 90.5182 -45.1091 -100.984 32.516 -24.593 -14.8949 -14.8582 -16.837 -14.4919 -11.2204 -0.153801 -3.53367 -87.7077 -45.027 81.4508 -31.3523 24.1618 -6.61308 7.11518 -11.8242 -15.1695 -3.30833 -0.0918964 -3.49602 4.86716 -6.08327 -1.19406 4.57163 -5.66198 1.27106 
-162.307 100.047 112.075 107.445 -67.3127 103.752 -174.71 -8.09519 90.6237 -8.12312 8.30031 9.33428 68.1497 3.42534 -5.26812 16.366 -8.8627 8.24873 171.653 -3.25106 85.667 -16.528 2.68421 1.86154 66.526 -2.56424 1.32295 25.0778 -0.976812 1.25731 0.151824 7.65233 -89.9986 11.5694 0.302744 -0.0285216 -0.1015 0.301196 -0.0418304 -22.6369 0.297319 0.0637801 -2.62429 0.297321 0.063778 91.0127 -44.1983 -100.403 33.1287 -24.8152 -15.3119 -14.645 -15.9475 -14.2643 -10.7988 -0.0638675 -4.50359 -87.4204 -46.029 82.0947 -30.1457 24.6281 -6.70462 6.96854 -12.1458 -15.2931 -3.45931 -0.0928561 -3.75233 5.14538 -5.84799 -0.410101 3.89697 -5.58233 1.20817 
-162.713 100.025 112.376 107.597 -66.4566 103.758 -174.166 -8.15566 91.2776 -8.35603 9.54244 8.98592 68.3151 3.5738 -4.97562 16.3641 -8.59933 7.7044 171.894 -3.68878 86.0536 -16.7431 3.6302 1.82105 66.8247 -2.53334 1.17627 24.9895 -0.973712 1.20173 0.135462 7.65687 -90.0163 11.5602 0.261847 -0.0595266 -0.11074 0.25898 -0.0709942 -22.6461 0.267624 0.0219192 -2.63346 0.267636 0.0219241 90.6383 -44.4801 -100.946 32.8276 -24.5556 -14.928 -14.5044 -15.7202 -13.869 -11.0542 -0.05072 -4.64246 -87.5864 -45.2283 81.6824 -31.1795 22.7822 -5.69917 6.99654 -12.1201 -15.4346 -1.82143 -0.0740674 -1.5511 3.72264 -5.74313 -0.399739 4.63448 -5.48302 1.27203 
